<mxfile host="Electron" agent="Mozilla/5.0 (X11; Linux x86_64) AppleWebKit/537.36 (KHTML, like Gecko) draw.io/28.0.4 Chrome/138.0.7204.97 Electron/37.2.1 Safari/537.36" version="28.0.4">
  <diagram name="Page-1" id="tGJ1yrd8MmSeqDUfCLzK">
    <mxGraphModel dx="1580" dy="1477" grid="1" gridSize="10" guides="1" tooltips="1" connect="1" arrows="1" fold="1" page="1" pageScale="1" pageWidth="850" pageHeight="1100" math="0" shadow="0">
      <root>
        <mxCell id="0" />
        <mxCell id="nSLMjQ-g4_iNuUrU2HpP-40" value="Background" style="locked=1;" parent="0" />
        <mxCell id="nSLMjQ-g4_iNuUrU2HpP-41" value="" style="endArrow=none;html=1;rounded=0;fillColor=#f5f5f5;strokeColor=#666666;" parent="nSLMjQ-g4_iNuUrU2HpP-40" edge="1">
          <mxGeometry width="50" height="50" relative="1" as="geometry">
            <mxPoint x="240" y="1260" as="sourcePoint" />
            <mxPoint x="240" y="90" as="targetPoint" />
          </mxGeometry>
        </mxCell>
        <mxCell id="nSLMjQ-g4_iNuUrU2HpP-42" value="" style="endArrow=none;html=1;rounded=0;fillColor=#f5f5f5;strokeColor=#666666;" parent="nSLMjQ-g4_iNuUrU2HpP-40" edge="1">
          <mxGeometry width="50" height="50" relative="1" as="geometry">
            <mxPoint x="400" y="1260" as="sourcePoint" />
            <mxPoint x="400" y="90" as="targetPoint" />
          </mxGeometry>
        </mxCell>
        <mxCell id="nSLMjQ-g4_iNuUrU2HpP-43" value="" style="endArrow=none;html=1;rounded=0;fillColor=#f5f5f5;strokeColor=#666666;" parent="nSLMjQ-g4_iNuUrU2HpP-40" edge="1">
          <mxGeometry width="50" height="50" relative="1" as="geometry">
            <mxPoint x="560" y="1260" as="sourcePoint" />
            <mxPoint x="560" y="90" as="targetPoint" />
          </mxGeometry>
        </mxCell>
        <mxCell id="nSLMjQ-g4_iNuUrU2HpP-45" value="" style="endArrow=none;html=1;rounded=0;fillColor=#f5f5f5;strokeColor=#666666;" parent="nSLMjQ-g4_iNuUrU2HpP-40" edge="1">
          <mxGeometry width="50" height="50" relative="1" as="geometry">
            <mxPoint x="720" y="1260" as="sourcePoint" />
            <mxPoint x="720" y="90" as="targetPoint" />
          </mxGeometry>
        </mxCell>
        <mxCell id="nSLMjQ-g4_iNuUrU2HpP-46" value="" style="endArrow=none;html=1;rounded=0;fillColor=#f5f5f5;strokeColor=#666666;" parent="nSLMjQ-g4_iNuUrU2HpP-40" edge="1">
          <mxGeometry width="50" height="50" relative="1" as="geometry">
            <mxPoint x="880" y="1260" as="sourcePoint" />
            <mxPoint x="880" y="90" as="targetPoint" />
          </mxGeometry>
        </mxCell>
        <mxCell id="nSLMjQ-g4_iNuUrU2HpP-47" value="" style="endArrow=none;html=1;rounded=0;fillColor=#f5f5f5;strokeColor=#666666;" parent="nSLMjQ-g4_iNuUrU2HpP-40" edge="1">
          <mxGeometry width="50" height="50" relative="1" as="geometry">
            <mxPoint x="1040" y="1260" as="sourcePoint" />
            <mxPoint x="1040" y="90" as="targetPoint" />
          </mxGeometry>
        </mxCell>
        <mxCell id="nSLMjQ-g4_iNuUrU2HpP-48" value="" style="endArrow=none;html=1;rounded=0;fillColor=#f5f5f5;strokeColor=#666666;" parent="nSLMjQ-g4_iNuUrU2HpP-40" edge="1">
          <mxGeometry width="50" height="50" relative="1" as="geometry">
            <mxPoint x="1200" y="1260" as="sourcePoint" />
            <mxPoint x="1200" y="90" as="targetPoint" />
          </mxGeometry>
        </mxCell>
        <mxCell id="nSLMjQ-g4_iNuUrU2HpP-49" value="" style="endArrow=none;html=1;rounded=0;fillColor=#f5f5f5;strokeColor=#666666;" parent="nSLMjQ-g4_iNuUrU2HpP-40" edge="1">
          <mxGeometry width="50" height="50" relative="1" as="geometry">
            <mxPoint x="1200" y="300" as="sourcePoint" />
            <mxPoint x="30" y="300" as="targetPoint" />
          </mxGeometry>
        </mxCell>
        <mxCell id="nSLMjQ-g4_iNuUrU2HpP-50" value="" style="endArrow=none;html=1;rounded=0;fillColor=#f5f5f5;strokeColor=#666666;" parent="nSLMjQ-g4_iNuUrU2HpP-40" edge="1">
          <mxGeometry width="50" height="50" relative="1" as="geometry">
            <mxPoint x="1200" y="460" as="sourcePoint" />
            <mxPoint x="30" y="460" as="targetPoint" />
          </mxGeometry>
        </mxCell>
        <mxCell id="nSLMjQ-g4_iNuUrU2HpP-51" value="" style="endArrow=none;html=1;rounded=0;fillColor=#f5f5f5;strokeColor=#666666;" parent="nSLMjQ-g4_iNuUrU2HpP-40" edge="1">
          <mxGeometry width="50" height="50" relative="1" as="geometry">
            <mxPoint x="1200" y="620" as="sourcePoint" />
            <mxPoint x="30" y="620" as="targetPoint" />
          </mxGeometry>
        </mxCell>
        <mxCell id="nSLMjQ-g4_iNuUrU2HpP-52" value="" style="endArrow=none;html=1;rounded=0;fillColor=#f5f5f5;strokeColor=#666666;" parent="nSLMjQ-g4_iNuUrU2HpP-40" edge="1">
          <mxGeometry width="50" height="50" relative="1" as="geometry">
            <mxPoint x="1200" y="780" as="sourcePoint" />
            <mxPoint x="30" y="780" as="targetPoint" />
          </mxGeometry>
        </mxCell>
        <mxCell id="nSLMjQ-g4_iNuUrU2HpP-53" value="" style="endArrow=none;html=1;rounded=0;fillColor=#f5f5f5;strokeColor=#666666;" parent="nSLMjQ-g4_iNuUrU2HpP-40" edge="1">
          <mxGeometry width="50" height="50" relative="1" as="geometry">
            <mxPoint x="1200" y="940" as="sourcePoint" />
            <mxPoint x="30" y="940" as="targetPoint" />
          </mxGeometry>
        </mxCell>
        <mxCell id="nSLMjQ-g4_iNuUrU2HpP-54" value="" style="endArrow=none;html=1;rounded=0;fillColor=#f5f5f5;strokeColor=#666666;" parent="nSLMjQ-g4_iNuUrU2HpP-40" edge="1">
          <mxGeometry width="50" height="50" relative="1" as="geometry">
            <mxPoint x="1200" y="1100" as="sourcePoint" />
            <mxPoint x="30" y="1100" as="targetPoint" />
          </mxGeometry>
        </mxCell>
        <mxCell id="nSLMjQ-g4_iNuUrU2HpP-55" value="" style="endArrow=none;html=1;rounded=0;fillColor=#f5f5f5;strokeColor=#666666;" parent="nSLMjQ-g4_iNuUrU2HpP-40" edge="1">
          <mxGeometry width="50" height="50" relative="1" as="geometry">
            <mxPoint x="1200" y="1260" as="sourcePoint" />
            <mxPoint x="30" y="1260" as="targetPoint" />
          </mxGeometry>
        </mxCell>
        <mxCell id="1" value="Main" style="locked=1;" parent="0" />
        <mxCell id="nSLMjQ-g4_iNuUrU2HpP-3" value="&lt;span style=&quot;text-align: left;&quot;&gt;Продажи в сети отделений&lt;/span&gt;" style="rounded=1;whiteSpace=wrap;html=1;fillColor=#fff2cc;strokeColor=#d6b656;fontSize=14;strokeWidth=2;" parent="1" vertex="1">
          <mxGeometry x="80" y="80" width="160" height="60" as="geometry" />
        </mxCell>
        <mxCell id="nSLMjQ-g4_iNuUrU2HpP-4" value="&lt;span style=&quot;text-align: left;&quot;&gt;Продажи через кол-центр&lt;/span&gt;" style="rounded=1;whiteSpace=wrap;html=1;fillColor=#fff2cc;strokeColor=#d6b656;fontSize=14;strokeWidth=2;" parent="1" vertex="1">
          <mxGeometry x="240" y="80" width="160" height="60" as="geometry" />
        </mxCell>
        <mxCell id="nSLMjQ-g4_iNuUrU2HpP-5" value="&lt;span style=&quot;text-align: left;&quot;&gt;Обслуживание депозитных процессов&lt;/span&gt;" style="rounded=1;whiteSpace=wrap;html=1;fillColor=#fff2cc;strokeColor=#d6b656;fontSize=14;strokeWidth=2;" parent="1" vertex="1">
          <mxGeometry x="400" y="80" width="160" height="60" as="geometry" />
        </mxCell>
        <mxCell id="nSLMjQ-g4_iNuUrU2HpP-6" value="&lt;span style=&quot;text-align: left;&quot;&gt;Обслуживание кредитных процессов&lt;/span&gt;" style="rounded=1;whiteSpace=wrap;html=1;fillColor=#fff2cc;strokeColor=#d6b656;fontSize=14;strokeWidth=2;" parent="1" vertex="1">
          <mxGeometry x="560" y="80" width="160" height="60" as="geometry" />
        </mxCell>
        <mxCell id="nSLMjQ-g4_iNuUrU2HpP-13" value="&lt;span style=&quot;text-align: left;&quot;&gt;Обслуживание кредитных процессов&lt;/span&gt;" style="rounded=1;whiteSpace=wrap;html=1;fillColor=#fff2cc;strokeColor=#d6b656;fontSize=14;strokeWidth=2;" parent="1" vertex="1">
          <mxGeometry x="720" y="80" width="160" height="60" as="geometry" />
        </mxCell>
        <mxCell id="nSLMjQ-g4_iNuUrU2HpP-16" value="&lt;span style=&quot;text-align: left;&quot;&gt;Digital-оповещения клиентов&lt;/span&gt;" style="rounded=1;whiteSpace=wrap;html=1;fillColor=#fff2cc;strokeColor=#d6b656;fontSize=14;strokeWidth=2;" parent="1" vertex="1">
          <mxGeometry x="880" y="80" width="160" height="60" as="geometry" />
        </mxCell>
        <mxCell id="nSLMjQ-g4_iNuUrU2HpP-18" value="&lt;span style=&quot;text-align: left;&quot;&gt;Управление договорами&lt;/span&gt;" style="rounded=1;whiteSpace=wrap;html=1;fillColor=#fff2cc;strokeColor=#d6b656;fontSize=14;strokeWidth=2;" parent="1" vertex="1">
          <mxGeometry x="1040" y="80" width="160" height="60" as="geometry" />
        </mxCell>
        <mxCell id="nSLMjQ-g4_iNuUrU2HpP-19" value="&lt;div style=&quot;text-align: left;&quot;&gt;&lt;span style=&quot;background-color: transparent; color: light-dark(rgb(0, 0, 0), rgb(255, 255, 255)); font-size: 12px;&quot;&gt;Отделение банка&lt;/span&gt;&lt;/div&gt;" style="rounded=1;whiteSpace=wrap;html=1;fillColor=#fff2cc;strokeColor=#d6b656;fontSize=14;strokeWidth=2;rotation=-90;" parent="1" vertex="1">
          <mxGeometry x="-30" y="190" width="160" height="60" as="geometry" />
        </mxCell>
        <mxCell id="nSLMjQ-g4_iNuUrU2HpP-22" value="&lt;span style=&quot;font-size: 12px; text-align: left;&quot;&gt;Кол-центр банка&lt;/span&gt;" style="rounded=1;whiteSpace=wrap;html=1;fillColor=#fff2cc;strokeColor=#d6b656;fontSize=14;strokeWidth=2;rotation=-90;" parent="1" vertex="1">
          <mxGeometry x="-30" y="350" width="160" height="60" as="geometry" />
        </mxCell>
        <mxCell id="nSLMjQ-g4_iNuUrU2HpP-25" value="&lt;span style=&quot;font-size: 12px; text-align: left;&quot;&gt;Управление депозитных продуктов&lt;/span&gt;" style="rounded=1;whiteSpace=wrap;html=1;fillColor=#fff2cc;strokeColor=#d6b656;fontSize=14;strokeWidth=2;rotation=-90;" parent="1" vertex="1">
          <mxGeometry x="-30" y="670" width="160" height="60" as="geometry" />
        </mxCell>
        <mxCell id="nSLMjQ-g4_iNuUrU2HpP-28" value="&lt;span style=&quot;font-size: 12px; text-align: left;&quot;&gt;Управление кредитных продуктов&lt;/span&gt;" style="rounded=1;whiteSpace=wrap;html=1;fillColor=#fff2cc;strokeColor=#d6b656;fontSize=14;strokeWidth=2;rotation=-90;" parent="1" vertex="1">
          <mxGeometry x="-30" y="830" width="160" height="60" as="geometry" />
        </mxCell>
        <mxCell id="nSLMjQ-g4_iNuUrU2HpP-31" value="&lt;span style=&quot;font-size: 12px; text-align: left;&quot;&gt;IT-отдел&lt;/span&gt;" style="rounded=1;whiteSpace=wrap;html=1;fillColor=#fff2cc;strokeColor=#d6b656;fontSize=14;strokeWidth=2;rotation=-90;" parent="1" vertex="1">
          <mxGeometry x="-30" y="1150" width="160" height="60" as="geometry" />
        </mxCell>
        <mxCell id="nSLMjQ-g4_iNuUrU2HpP-32" value="&lt;span style=&quot;font-size: 12px; text-align: left;&quot;&gt;Отдел цифровой трансформации&lt;/span&gt;" style="rounded=1;whiteSpace=wrap;html=1;fillColor=#fff2cc;strokeColor=#d6b656;fontSize=14;strokeWidth=2;rotation=-90;" parent="1" vertex="1">
          <mxGeometry x="-30" y="990" width="160" height="60" as="geometry" />
        </mxCell>
        <mxCell id="nSLMjQ-g4_iNuUrU2HpP-36" value="&lt;span style=&quot;font-size: 12px; text-align: left;&quot;&gt;Партнёрский кол-центр&lt;/span&gt;" style="rounded=1;whiteSpace=wrap;html=1;fillColor=#fff2cc;strokeColor=#d6b656;fontSize=14;strokeWidth=2;rotation=-90;" parent="1" vertex="1">
          <mxGeometry x="-30" y="510" width="160" height="60" as="geometry" />
        </mxCell>
        <mxCell id="nSLMjQ-g4_iNuUrU2HpP-57" value="Content" parent="0" />
        <mxCell id="nSLMjQ-g4_iNuUrU2HpP-58" value="АБС" style="rounded=1;whiteSpace=wrap;html=1;fillColor=#dae8fc;strokeColor=#6c8ebf;strokeWidth=2;fontSize=14;" parent="nSLMjQ-g4_iNuUrU2HpP-57" vertex="1">
          <mxGeometry x="90" y="150" width="140" height="300" as="geometry" />
        </mxCell>
        <mxCell id="nSLMjQ-g4_iNuUrU2HpP-59" value="&lt;div&gt;&lt;span style=&quot;font-size: 12px;&quot;&gt;&lt;br&gt;&lt;/span&gt;&lt;/div&gt;&lt;span style=&quot;font-size: 12px;&quot;&gt;&lt;div&gt;&lt;span style=&quot;font-size: 12px;&quot;&gt;&lt;br&gt;&lt;/span&gt;&lt;/div&gt;&lt;div&gt;&lt;span style=&quot;font-size: 12px;&quot;&gt;&lt;br&gt;&lt;/span&gt;&lt;/div&gt;Система кол-центра&lt;/span&gt;" style="rounded=1;whiteSpace=wrap;html=1;fillColor=#dae8fc;strokeColor=#6c8ebf;strokeWidth=2;fontSize=14;labelPosition=center;verticalLabelPosition=middle;align=center;verticalAlign=middle;" parent="nSLMjQ-g4_iNuUrU2HpP-57" vertex="1">
          <mxGeometry x="250" y="310" width="460" height="140" as="geometry" />
        </mxCell>
        <mxCell id="nSLMjQ-g4_iNuUrU2HpP-62" value="&lt;span style=&quot;font-size: 12px; text-align: left;&quot;&gt;АБС&lt;/span&gt;" style="rounded=1;whiteSpace=wrap;html=1;fillColor=#dae8fc;strokeColor=#6c8ebf;strokeWidth=2;fontSize=14;" parent="nSLMjQ-g4_iNuUrU2HpP-57" vertex="1">
          <mxGeometry x="1050" y="150" width="140" height="140" as="geometry" />
        </mxCell>
        <mxCell id="nSLMjQ-g4_iNuUrU2HpP-63" value="&lt;div&gt;&lt;span style=&quot;font-size: 12px; text-align: left;&quot;&gt;&lt;br&gt;&lt;/span&gt;&lt;/div&gt;&lt;span style=&quot;font-size: 12px; text-align: left;&quot;&gt;&lt;div&gt;&lt;span style=&quot;font-size: 12px; text-align: left;&quot;&gt;&lt;br&gt;&lt;/span&gt;&lt;/div&gt;&lt;div&gt;&lt;span style=&quot;font-size: 12px; text-align: left;&quot;&gt;&lt;br&gt;&lt;/span&gt;&lt;/div&gt;&lt;div&gt;&lt;span style=&quot;font-size: 12px; text-align: left;&quot;&gt;&lt;br&gt;&lt;/span&gt;&lt;/div&gt;Внешняя система&lt;/span&gt;" style="rounded=1;whiteSpace=wrap;html=1;fillColor=#dae8fc;strokeColor=#6c8ebf;strokeWidth=2;fontSize=14;" parent="nSLMjQ-g4_iNuUrU2HpP-57" vertex="1">
          <mxGeometry x="250" y="470" width="460" height="140" as="geometry" />
        </mxCell>
        <mxCell id="nSLMjQ-g4_iNuUrU2HpP-68" value="&lt;span style=&quot;font-size: 12px; text-align: left;&quot;&gt;Система кол-центра&lt;/span&gt;" style="rounded=1;whiteSpace=wrap;html=1;fillColor=#dae8fc;strokeColor=#6c8ebf;strokeWidth=2;fontSize=14;" parent="nSLMjQ-g4_iNuUrU2HpP-57" vertex="1">
          <mxGeometry x="890" y="310" width="140" height="140" as="geometry" />
        </mxCell>
        <mxCell id="nSLMjQ-g4_iNuUrU2HpP-71" value="&lt;span style=&quot;font-size: 12px; text-align: left;&quot;&gt;SMS-шлюз&lt;/span&gt;" style="rounded=1;whiteSpace=wrap;html=1;fillColor=#dae8fc;strokeColor=#6c8ebf;strokeWidth=2;fontSize=14;" parent="nSLMjQ-g4_iNuUrU2HpP-57" vertex="1">
          <mxGeometry x="890" y="1110" width="140" height="140" as="geometry" />
        </mxCell>
        <mxCell id="nSLMjQ-g4_iNuUrU2HpP-73" value="&lt;span style=&quot;font-size: 12px; text-align: left;&quot;&gt;Сайт&lt;/span&gt;" style="rounded=1;whiteSpace=wrap;html=1;fillColor=#dae8fc;strokeColor=#6c8ebf;strokeWidth=2;fontSize=14;" parent="nSLMjQ-g4_iNuUrU2HpP-57" vertex="1">
          <mxGeometry x="890" y="950" width="140" height="60" as="geometry" />
        </mxCell>
        <mxCell id="Njwna2QJ6elQh-JWzttx-2" value="&lt;span style=&quot;font-size: 12px; text-align: left;&quot;&gt;Excel&lt;/span&gt;" style="rounded=1;whiteSpace=wrap;html=1;fillColor=#dae8fc;strokeColor=#6c8ebf;strokeWidth=2;fontSize=14;" vertex="1" parent="nSLMjQ-g4_iNuUrU2HpP-57">
          <mxGeometry x="410" y="150" width="300" height="40" as="geometry" />
        </mxCell>
        <mxCell id="Njwna2QJ6elQh-JWzttx-5" value="&lt;span style=&quot;font-size: 12px; text-align: left;&quot;&gt;Почта&lt;/span&gt;" style="rounded=1;whiteSpace=wrap;html=1;fillColor=#dae8fc;strokeColor=#6c8ebf;strokeWidth=2;fontSize=14;" vertex="1" parent="nSLMjQ-g4_iNuUrU2HpP-57">
          <mxGeometry x="410" y="200" width="300" height="40" as="geometry" />
        </mxCell>
        <mxCell id="Njwna2QJ6elQh-JWzttx-6" value="&lt;span style=&quot;font-size: 12px; text-align: left;&quot;&gt;АБС&lt;/span&gt;" style="rounded=1;whiteSpace=wrap;html=1;fillColor=#dae8fc;strokeColor=#6c8ebf;strokeWidth=2;fontSize=14;" vertex="1" parent="nSLMjQ-g4_iNuUrU2HpP-57">
          <mxGeometry x="410" y="250" width="300" height="130" as="geometry" />
        </mxCell>
        <mxCell id="Njwna2QJ6elQh-JWzttx-7" value="&lt;span style=&quot;font-size: 12px; text-align: left;&quot;&gt;Почта&lt;/span&gt;" style="rounded=1;whiteSpace=wrap;html=1;fillColor=#dae8fc;strokeColor=#6c8ebf;strokeWidth=2;fontSize=14;" vertex="1" parent="nSLMjQ-g4_iNuUrU2HpP-57">
          <mxGeometry x="410" y="470" width="300" height="60" as="geometry" />
        </mxCell>
        <mxCell id="Njwna2QJ6elQh-JWzttx-8" value="&lt;span style=&quot;font-size: 12px; text-align: left;&quot;&gt;Excel&lt;/span&gt;" style="rounded=1;whiteSpace=wrap;html=1;fillColor=#dae8fc;strokeColor=#6c8ebf;strokeWidth=2;fontSize=14;" vertex="1" parent="nSLMjQ-g4_iNuUrU2HpP-57">
          <mxGeometry x="410" y="680" width="140" height="40" as="geometry" />
        </mxCell>
        <mxCell id="Njwna2QJ6elQh-JWzttx-9" value="&lt;span style=&quot;font-size: 12px; text-align: left;&quot;&gt;Почта&lt;/span&gt;" style="rounded=1;whiteSpace=wrap;html=1;fillColor=#dae8fc;strokeColor=#6c8ebf;strokeWidth=2;fontSize=14;" vertex="1" parent="nSLMjQ-g4_iNuUrU2HpP-57">
          <mxGeometry x="410" y="730" width="140" height="40" as="geometry" />
        </mxCell>
        <mxCell id="Njwna2QJ6elQh-JWzttx-10" value="&lt;span style=&quot;font-size: 12px; text-align: left;&quot;&gt;АБС&lt;/span&gt;" style="rounded=1;whiteSpace=wrap;html=1;fillColor=#dae8fc;strokeColor=#6c8ebf;strokeWidth=2;fontSize=14;" vertex="1" parent="nSLMjQ-g4_iNuUrU2HpP-57">
          <mxGeometry x="410" y="630" width="140" height="40" as="geometry" />
        </mxCell>
        <mxCell id="Njwna2QJ6elQh-JWzttx-11" value="&lt;span style=&quot;font-size: 12px; text-align: left;&quot;&gt;Excel&lt;/span&gt;" style="rounded=1;whiteSpace=wrap;html=1;fillColor=#dae8fc;strokeColor=#6c8ebf;strokeWidth=2;fontSize=14;" vertex="1" parent="nSLMjQ-g4_iNuUrU2HpP-57">
          <mxGeometry x="570" y="840" width="140" height="40" as="geometry" />
        </mxCell>
        <mxCell id="Njwna2QJ6elQh-JWzttx-12" value="&lt;span style=&quot;font-size: 12px; text-align: left;&quot;&gt;Почта&lt;/span&gt;" style="rounded=1;whiteSpace=wrap;html=1;fillColor=#dae8fc;strokeColor=#6c8ebf;strokeWidth=2;fontSize=14;" vertex="1" parent="nSLMjQ-g4_iNuUrU2HpP-57">
          <mxGeometry x="570" y="890" width="140" height="40" as="geometry" />
        </mxCell>
        <mxCell id="Njwna2QJ6elQh-JWzttx-13" value="&lt;span style=&quot;font-size: 12px; text-align: left;&quot;&gt;АБС&lt;/span&gt;" style="rounded=1;whiteSpace=wrap;html=1;fillColor=#dae8fc;strokeColor=#6c8ebf;strokeWidth=2;fontSize=14;" vertex="1" parent="nSLMjQ-g4_iNuUrU2HpP-57">
          <mxGeometry x="570" y="790" width="140" height="40" as="geometry" />
        </mxCell>
        <mxCell id="Njwna2QJ6elQh-JWzttx-14" value="&lt;span style=&quot;font-size: 12px; text-align: left;&quot;&gt;Интернет-банк&lt;/span&gt;" style="rounded=1;whiteSpace=wrap;html=1;fillColor=#dae8fc;strokeColor=#6c8ebf;strokeWidth=2;fontSize=14;" vertex="1" parent="nSLMjQ-g4_iNuUrU2HpP-57">
          <mxGeometry x="890" y="1020" width="140" height="70" as="geometry" />
        </mxCell>
      </root>
    </mxGraphModel>
  </diagram>
</mxfile>
